<svg id="Слой_1" data-name="Слой 1" xmlns="http://www.w3.org/2000/svg" viewBox="0 0 1940.31 304.12"><path d="M30.84,344.92v-1.26a1.06,1.06,0,0,0-.13-.58,1.36,1.36,0,0,0-.79-.79,1.06,1.06,0,0,0-.58-.13l-.4,0a1.49,1.49,0,0,0-.66.39l-.23.3a1.48,1.48,0,0,0-.21.76v1.26a1.15,1.15,0,0,0,.13.58,1,1,0,0,0,.31.48,1.14,1.14,0,0,0,.48.31,1.08,1.08,0,0,0,.58.13l.4-.05a1.44,1.44,0,0,0,.66-.39l.24-.3a1.54,1.54,0,0,0,.2-.76Z" transform="translate(3.56 -333.36)"/><path d="M-3.48,616.23c8.53,25.93,40.35,24.65,59.6,12.47,13.59-8.59,25-21,35.63-32.87a334.26,334.26,0,0,0,32.19-42.44c16-24.95,27.09-63.31,55-77.9,16.32-8.53,34.07-.83,42,15,7,14.06,7.05,30.21,5.39,45.45-3.08,28.17-8,62.3,20.63,79.2,21.45,12.64,49.56,9.39,69.42-4.66,24.45-17.3,37.35-46.18,45.3-74.15,5.26-18.51,8.83-37.45,14.08-56,2.54-8.93,5-19,9.88-26.95,6.21-10.05,16.53-10.11,21.49-.07,6.52,13.17,8.45,41.52,30.17,33.13C463.73,476.3,463,433.34,495.59,432c12.92-.54,16.06,11.46,12.33,22.09-2.67,7.64-7.25,14.44-9.75,22.2A88.51,88.51,0,0,0,495,515.16a103.79,103.79,0,0,0,36,65.39c44.25,36.63,113.47,24.81,151.46-15.17,21.81-22.94,36.22-59.22,68.09-70.12,12.58-4.31,27.86-4.66,39.9,1.56,18.76,9.7,17.69,30.66,11,48-7.7,19.74-26.45,57.89,3.79,69.41,12.74,4.85,28.77,2.13,41.85,0a186.72,186.72,0,0,0,42.74-12.52C947.56,577.22,992.1,528.9,1030,480.48c9.16-11.7,18-23.63,26.75-35.66h-2.59c22.74,41.75,27.17,92.36,11.1,137.24-5.33,14.87-17.06,34.4-1.76,47.43,11.43,9.72,28.91,8.75,42.7,6.45,35.58-5.93,68.29-25.64,91.62-53a155.33,155.33,0,0,0,27.07-45.22,140.89,140.89,0,0,0,7-25.1c1.78-9.74,2.45-20.62,7.71-29.29,9.41-15.55,30-12.78,41.17-.85,9.89,10.59,12.61,26.16,13.84,40a183.77,183.77,0,0,1-14.57,88.65,1.52,1.52,0,0,0,1.3,2.25c47.84,4.73,96.9-18.67,122.3-59.77,15.52-25.1,21.8-54.55,35.55-80.53,14-26.4,36.2-57.07,66.47-65.58,15.87-4.46,32-.79,41.31,13.42,7.5,11.45,9.4,27.92-2.84,36.84a1.51,1.51,0,0,0-.3,2.36c11.64,9.41,27.8,3.78,36.67-6.92,13.54-16.33,13.34-40.27,25.38-57.85,23.93-35,69.4-48.43,108.14-59.14l-1.85-1.84q-24.59,90.24-54.48,178.91c-6.83,20.24-17.11,43.39-7.14,64.39,6.93,14.56,21.64,23.55,36.86,27.37,40.16,10.08,73.16-13.16,95.36-44.89,14.37-20.55,24.85-43.45,37-65.28a566.27,566.27,0,0,1,47.36-71.49c9.54-12.26,19.3-25.24,30.91-35.63,7.09-6.35,15.93-12.69,25.76-13.41,4.14-.31,7.64-.86,9.15,3.49,1,2.81-2.24,11.14-2.78,14.23a355,355,0,0,0-3.1,97.92c.2,1.9,3.2,1.92,3,0a355.54,355.54,0,0,1,6.57-114.9,1.55,1.55,0,0,0-1-1.84c-18.2-6.47-34.67,6.47-46.5,19.15-14.85,15.92-28.21,33.56-40.72,51.35a578,578,0,0,0-35.92,58.25c-9.84,18.27-19,37-30.65,54.23-21.44,31.58-53.76,55.94-93.64,45.93-16.42-4.13-32.11-14.56-37.13-31.5-6.8-22.9,7.16-49.36,14.27-70.76q27.14-81.66,49.72-164.73a1.51,1.51,0,0,0-1.84-1.84c-37.7,10.42-80.34,23.27-105.84,55a86.36,86.36,0,0,0-12.92,22.06c-5.11,12.78-6.67,27.55-14.82,39a31,31,0,0,1-15.06,11.36c-2.49.84-17.32,3-16.94-1.86.06-.65,4.86-5.45,5.32-6.26a24.69,24.69,0,0,0,3-9.87c1.3-13.62-6.77-28-18.24-35.17-15.79-9.81-36.37-3.88-51,5.28-19.44,12.22-34.49,31.64-46,51.22-13.08,22.26-19.82,47.13-30.49,70.48-22.77,49.85-73.79,81.27-128.94,75.82l1.29,2.26a188.52,188.52,0,0,0,15.59-69.05c.56-19.86-.36-44.15-13.08-60.58-8.9-11.5-26.38-18.31-39.65-10.07-15,9.32-14.34,30.39-17.89,45.59-9.52,40.78-37.61,76.33-73.8,97-17.77,10.15-38.16,17.31-58.69,18.69-9.94.66-21.73-.42-29.6-7.14-13.36-11.42-3.44-28.38,1.49-41.3,17.64-46.3,13.32-99.21-10.29-142.56a1.52,1.52,0,0,0-2.59,0C1016.69,494.93,975.54,547.51,920.9,582c-26.69,16.81-56.71,28.42-88.3,31-8.53.7-18,1.52-26.14-1.67-10.86-4.26-14.91-14.09-14.87-25.14.06-17.64,10.88-32.33,15.62-48.77,6.7-23.19-4.54-43.49-28.66-47.48-25.11-4.16-46,8.82-61.88,27.19-21.31,24.72-36.14,52.81-66.1,68.62-28.67,15.12-64,18.84-94.36,6.42-27.66-11.33-48-36.3-55.73-65a90.2,90.2,0,0,1-1.11-44.07c3.07-13,15.4-26.9,13.33-40.58-3.41-22.63-31.66-11.76-42.07-1.53-9.55,9.39-13.62,23.14-22.32,33.32-5,5.87-12.62,12.22-20.84,10.22-7-1.7-9.67-9.49-11.8-15.61-2.59-7.42-4-17.52-10.12-23.1-5.75-5.25-13.88-3.85-19.07,1.51-10,10.33-12.93,29-16.34,42.4-4.62,18.07-8.21,36.43-13.88,54.22-9.62,30.2-28.14,64.09-60.8,73.54-14.28,4.13-30.48,3.45-43.89-3.24-16.87-8.4-24.52-25-25.06-43.31-.83-28.32,11.14-58.75-4.74-85.07-11.88-19.69-35.5-21.46-52.55-7.4-22.67,18.67-32.47,49.3-47.87,73.4a329,329,0,0,1-33.93,44.3c-11.75,12.9-24.75,27.13-40.93,34.39C29.81,638,5.89,635.11-.58,615.43c-.6-1.82-3.5-1-2.9.8Z" transform="translate(3.56 -333.36)"/></svg>