<svg id="visual" viewBox="0 0 960 150" width="960" height="150" xmlns="http://www.w3.org/2000/svg" xmlns:xlink="http://www.w3.org/1999/xlink" version="1.1"><path d="M0 49L7.7 54.2C15.3 59.3 30.7 69.7 45.8 76.5C61 83.3 76 86.7 91.2 91.8C106.3 97 121.7 104 137 99.2C152.3 94.3 167.7 77.7 183 76.7C198.3 75.7 213.7 90.3 228.8 87.3C244 84.3 259 63.7 274.2 52.3C289.3 41 304.7 39 320 40C335.3 41 350.7 45 365.8 54.3C381 63.7 396 78.3 411.2 76.3C426.3 74.3 441.7 55.7 457 51.2C472.3 46.7 487.7 56.3 503 65.3C518.3 74.3 533.7 82.7 548.8 79.2C564 75.7 579 60.3 594.2 55.5C609.3 50.7 624.7 56.3 640 59.8C655.3 63.3 670.7 64.7 685.8 61.5C701 58.3 716 50.7 731.2 53.5C746.3 56.3 761.7 69.7 777 72C792.3 74.3 807.7 65.7 823 69.2C838.3 72.7 853.7 88.3 868.8 88C884 87.7 899 71.3 914.2 61.5C929.3 51.7 944.7 48.3 952.3 46.7L960 45L960 151L952.3 151C944.7 151 929.3 151 914.2 151C899 151 884 151 868.8 151C853.7 151 838.3 151 823 151C807.7 151 792.3 151 777 151C761.7 151 746.3 151 731.2 151C716 151 701 151 685.8 151C670.7 151 655.3 151 640 151C624.7 151 609.3 151 594.2 151C579 151 564 151 548.8 151C533.7 151 518.3 151 503 151C487.7 151 472.3 151 457 151C441.7 151 426.3 151 411.2 151C396 151 381 151 365.8 151C350.7 151 335.3 151 320 151C304.7 151 289.3 151 274.2 151C259 151 244 151 228.8 151C213.7 151 198.3 151 183 151C167.7 151 152.3 151 137 151C121.7 151 106.3 151 91.2 151C76 151 61 151 45.8 151C30.7 151 15.3 151 7.7 151L0 151Z" fill="#FFFFFF" stroke-linecap="round" stroke-linejoin="miter"></path></svg>