<svg id="visual" viewBox="0 0 960 150" width="960" height="150" xmlns="http://www.w3.org/2000/svg" xmlns:xlink="http://www.w3.org/1999/xlink" version="1.1"><path d="M0 73L5.2 72.7C10.3 72.3 20.7 71.7 31 77.7C41.3 83.7 51.7 96.3 62 101.3C72.3 106.3 82.7 103.7 93 92.8C103.3 82 113.7 63 124 58.3C134.3 53.7 144.7 63.3 155 63.8C165.3 64.3 175.7 55.7 186 58.3C196.3 61 206.7 75 217 74.8C227.3 74.7 237.7 60.3 248 63.5C258.3 66.7 268.7 87.3 279 87C289.3 86.7 299.7 65.3 310 64.8C320.3 64.3 330.7 84.7 341 94.8C351.3 105 361.7 105 372 100.7C382.3 96.3 392.7 87.7 403 89.2C413.3 90.7 423.7 102.3 434 95.7C444.3 89 454.7 64 464.8 53.5C475 43 485 47 495.2 57.3C505.3 67.7 515.7 84.3 526 87.5C536.3 90.7 546.7 80.3 557 70.7C567.3 61 577.7 52 588 55.5C598.3 59 608.7 75 619 80.8C629.3 86.7 639.7 82.3 650 74.5C660.3 66.7 670.7 55.3 681 51.5C691.3 47.7 701.7 51.3 712 50C722.3 48.7 732.7 42.3 743 38C753.3 33.7 763.7 31.3 774 32.7C784.3 34 794.7 39 805 46.3C815.3 53.7 825.7 63.3 836 70C846.3 76.7 856.7 80.3 867 76.2C877.3 72 887.7 60 898 51.7C908.3 43.3 918.7 38.7 929 42.7C939.3 46.7 949.7 59.3 954.8 65.7L960 72L960 151L954.8 151C949.7 151 939.3 151 929 151C918.7 151 908.3 151 898 151C887.7 151 877.3 151 867 151C856.7 151 846.3 151 836 151C825.7 151 815.3 151 805 151C794.7 151 784.3 151 774 151C763.7 151 753.3 151 743 151C732.7 151 722.3 151 712 151C701.7 151 691.3 151 681 151C670.7 151 660.3 151 650 151C639.7 151 629.3 151 619 151C608.7 151 598.3 151 588 151C577.7 151 567.3 151 557 151C546.7 151 536.3 151 526 151C515.7 151 505.3 151 495.2 151C485 151 475 151 464.8 151C454.7 151 444.3 151 434 151C423.7 151 413.3 151 403 151C392.7 151 382.3 151 372 151C361.7 151 351.3 151 341 151C330.7 151 320.3 151 310 151C299.7 151 289.3 151 279 151C268.7 151 258.3 151 248 151C237.7 151 227.3 151 217 151C206.7 151 196.3 151 186 151C175.7 151 165.3 151 155 151C144.7 151 134.3 151 124 151C113.7 151 103.3 151 93 151C82.7 151 72.3 151 62 151C51.7 151 41.3 151 31 151C20.7 151 10.3 151 5.2 151L0 151Z" fill="#FFFFFF" stroke-linecap="round" stroke-linejoin="miter"></path></svg>