<svg id="visual" viewBox="0 0 960 300" width="960" height="300" xmlns="http://www.w3.org/2000/svg" xmlns:xlink="http://www.w3.org/1999/xlink" version="1.1"><rect x="0" y="0" width="960" height="300" fill="#ffb8c9"></rect><path d="M0 259L7.7 248C15.3 237 30.7 215 45.8 213.7C61 212.3 76 231.7 91.2 242C106.3 252.3 121.7 253.7 137 244C152.3 234.3 167.7 213.7 183 203C198.3 192.3 213.7 191.7 228.8 203C244 214.3 259 237.7 274.2 243.8C289.3 250 304.7 239 320 235.5C335.3 232 350.7 236 365.8 239.8C381 243.7 396 247.3 411.2 249.8C426.3 252.3 441.7 253.7 457 252C472.3 250.3 487.7 245.7 503 236.2C518.3 226.7 533.7 212.3 548.8 209C564 205.7 579 213.3 594.2 215.8C609.3 218.3 624.7 215.7 640 217.8C655.3 220 670.7 227 685.8 231.5C701 236 716 238 731.2 230.2C746.3 222.3 761.7 204.7 777 196.7C792.3 188.7 807.7 190.3 823 195C838.3 199.7 853.7 207.3 868.8 210.2C884 213 899 211 914.2 213.8C929.3 216.7 944.7 224.3 952.3 228.2L960 232L960 301L952.3 301C944.7 301 929.3 301 914.2 301C899 301 884 301 868.8 301C853.7 301 838.3 301 823 301C807.7 301 792.3 301 777 301C761.7 301 746.3 301 731.2 301C716 301 701 301 685.8 301C670.7 301 655.3 301 640 301C624.7 301 609.3 301 594.2 301C579 301 564 301 548.8 301C533.7 301 518.3 301 503 301C487.7 301 472.3 301 457 301C441.7 301 426.3 301 411.2 301C396 301 381 301 365.8 301C350.7 301 335.3 301 320 301C304.7 301 289.3 301 274.2 301C259 301 244 301 228.8 301C213.7 301 198.3 301 183 301C167.7 301 152.3 301 137 301C121.7 301 106.3 301 91.2 301C76 301 61 301 45.8 301C30.7 301 15.3 301 7.7 301L0 301Z" fill="#FFFFFF" stroke-linecap="round" stroke-linejoin="miter"></path></svg>