<svg width="42" height="42" viewBox="0 0 42 42" fill="none" xmlns="http://www.w3.org/2000/svg">
<path d="M12.4701 10.5742C11.3257 10.7396 10.1971 11.0003 9.09618 11.3537C7.73308 11.8638 5.02634 13.2453 5.54071 19.6529C6.15381 27.2903 14.5248 39.3112 21.1501 39.3919H20.8467C27.4719 39.3112 35.843 27.2903 36.4561 19.6529C36.9705 13.2453 34.2638 11.8638 32.9007 11.3537C32.0229 11.0635 31.1235 10.8429 30.211 10.6942L12.4701 10.5742Z" fill="#DB2E40"/>
<path d="M20.666 9.12445C19.5548 9.01173 18.0399 8.21679 16.1674 7.99209C14.1504 7.75006 11.245 8.33862 11.245 8.33862C12.6934 8.54934 14.0669 8.92859 15.1849 9.88166C15.1849 9.88166 12.9257 9.22042 11.3277 9.8541C10.1687 10.2852 8.98105 10.635 7.77344 10.9011C9.55079 11.3749 11.3578 11.7293 13.1825 11.9619C15.9256 12.2846 16.6516 11.7199 16.6516 11.7199C16.6516 11.7199 14.9233 12.6685 14.3585 13.9594C14.0141 14.7708 13.8271 15.6404 13.8075 16.5217C14.6778 15.4323 15.8454 14.6187 17.1688 14.1798C18.1494 13.8633 19.0286 13.293 19.7174 12.5267C19.7174 12.5267 19.314 13.7368 19.9594 15.6731C20.6048 17.6093 21.7343 18.0126 21.7343 18.0126C21.7467 17.1609 21.947 16.3225 22.3211 15.5573C22.9434 14.2314 22.1145 12.5266 22.1145 12.5266C22.8032 13.2929 23.6825 13.8632 24.663 14.1797C25.9865 14.6186 27.1541 15.4322 28.0244 16.5216C28.0047 15.6403 27.8177 14.7707 27.4733 13.9593C26.9086 12.6684 25.1803 11.7198 25.1803 11.7198C25.1803 11.7198 25.9063 12.2845 28.6494 11.9618C30.474 11.7292 32.281 11.3748 34.0583 10.901C32.8507 10.6349 31.6631 10.2851 30.5041 9.854C28.9061 9.22032 26.6468 9.88156 26.6468 9.88156C27.7649 8.92849 29.1383 8.54937 30.5867 8.33852C30.5867 8.33852 27.6812 7.74996 25.6643 7.99199C24.1153 8.17787 22.811 8.75399 21.7776 9.01127L20.666 9.12445Z" fill="#4A995C"/>
<path d="M21.1508 39.3896C21.1006 39.3889 21.0495 39.3814 20.9991 39.3794C20.9487 39.3814 20.8976 39.3889 20.8474 39.3896H21.1508Z" fill="#C61E32"/>
<path d="M34.7664 12.5195C34.7742 13.1172 34.7516 13.7148 34.6987 14.3101C34.029 22.0591 24.9493 34.2155 17.6834 34.48C17.7388 34.482 17.7951 34.4898 17.8504 34.4904H17.5164C17.5717 34.4898 17.628 34.482 17.6834 34.48C15.1287 34.387 12.3519 32.8252 9.79297 30.4993C12.9092 35.2795 17.2226 39.234 20.9998 39.382C27.6005 39.1233 35.8491 27.2328 36.4575 19.6532C36.7785 15.6543 35.845 13.6132 34.7664 12.5195Z" fill="#C61E32"/>
<path d="M21.2268 10.7795C21.4147 9.85557 21.7028 8.95491 22.086 8.09348C22.9669 6.03285 24.8293 4.13829 24.8293 4.13829L23.5105 2.75049C22.4745 4.22334 21.6636 5.84227 21.1045 7.55401C20.7671 8.61901 20.5087 9.70744 20.3315 10.8105L21.2268 10.7795Z" fill="#3D7546"/>
<path d="M24.2948 3.57739C23.7956 4.15985 22.2744 6.02773 21.5207 7.9993C21.1646 8.90487 20.8937 9.84162 20.7113 10.7974L21.2253 10.7796C21.4133 9.85573 21.7014 8.95507 22.0846 8.09364C22.9655 6.03301 24.8279 4.13845 24.8279 4.13845L24.2948 3.57739Z" fill="#32663C"/>
<path d="M21.0025 37.0792C20.9154 37.0792 20.832 37.0446 20.7705 36.9831C20.7089 36.9215 20.6743 36.8381 20.6743 36.751V35.5792C20.6743 35.4922 20.7089 35.4087 20.7705 35.3472C20.832 35.2857 20.9154 35.2511 21.0025 35.2511C21.0895 35.2511 21.173 35.2857 21.2345 35.3472C21.296 35.4087 21.3306 35.4922 21.3306 35.5792V36.751C21.3306 36.8381 21.296 36.9215 21.2345 36.9831C21.173 37.0446 21.0895 37.0792 21.0025 37.0792ZM18.6393 37.1077C18.5606 37.1075 18.4845 37.0791 18.425 37.0276C18.3654 36.9761 18.3264 36.9049 18.315 36.827L18.1376 35.6116C18.125 35.5254 18.1472 35.4378 18.1992 35.368C18.2513 35.2982 18.3289 35.2519 18.415 35.2393C18.5012 35.2267 18.5888 35.2489 18.6586 35.3009C18.7284 35.3529 18.7747 35.4306 18.7873 35.5167L18.9647 36.7321C18.9709 36.7748 18.9687 36.8182 18.9581 36.86C18.9475 36.9018 18.9288 36.9411 18.9031 36.9756C18.8773 37.0101 18.845 37.0393 18.808 37.0613C18.771 37.0834 18.73 37.098 18.6873 37.1042C18.6714 37.1066 18.6554 37.1078 18.6393 37.1077ZM18.3307 33.0417C18.2519 33.0415 18.1759 33.0131 18.1164 32.9616C18.0568 32.9101 18.0178 32.8389 18.0064 32.761L17.829 31.5456C17.8228 31.5029 17.8251 31.4594 17.8356 31.4176C17.8462 31.3758 17.8649 31.3365 17.8907 31.302C17.9164 31.2674 17.9487 31.2383 17.9858 31.2162C18.0228 31.1941 18.0638 31.1795 18.1065 31.1733C18.1491 31.1671 18.1926 31.1693 18.2344 31.1799C18.2762 31.1905 18.3155 31.2092 18.3501 31.2349C18.3846 31.2607 18.4138 31.293 18.4359 31.33C18.4579 31.3671 18.4725 31.4081 18.4787 31.4507L18.6559 32.6661C18.6685 32.7523 18.6463 32.8398 18.5943 32.9096C18.5423 32.9794 18.4647 33.0256 18.3786 33.0382C18.3627 33.0406 18.3467 33.0418 18.3307 33.0417ZM18.0221 28.9757C17.9434 28.9756 17.8673 28.9471 17.8078 28.8956C17.7483 28.8441 17.7092 28.7729 17.6978 28.695L17.5205 27.4796C17.5079 27.3934 17.5301 27.3058 17.5821 27.236C17.6341 27.1662 17.7117 27.1199 17.7979 27.1073C17.8841 27.0947 17.9717 27.1169 18.0415 27.1689C18.1113 27.221 18.1576 27.2986 18.1702 27.3847L18.3475 28.6002C18.3601 28.6863 18.3379 28.7738 18.2859 28.8436C18.2339 28.9134 18.1563 28.9596 18.0702 28.9722C18.0543 28.9746 18.0382 28.9758 18.0221 28.9757ZM17.7135 24.9097C17.6348 24.9096 17.5588 24.8811 17.4992 24.8296C17.4397 24.7781 17.4007 24.7069 17.3893 24.629L17.2119 23.4136C17.1993 23.3274 17.2215 23.2399 17.2735 23.1701C17.3255 23.1003 17.4031 23.054 17.4892 23.0414C17.5754 23.0288 17.663 23.051 17.7328 23.103C17.8025 23.155 17.8488 23.2326 17.8614 23.3187L18.0388 24.5342C18.0513 24.6203 18.0292 24.7078 17.9772 24.7776C17.9252 24.8474 17.8476 24.8936 17.7614 24.9062C17.7456 24.9086 17.7296 24.9098 17.7135 24.9097ZM17.4051 20.8439C17.3264 20.8438 17.2503 20.8154 17.1908 20.7638C17.1313 20.7123 17.0923 20.6411 17.081 20.5632L16.9033 19.3477C16.891 19.2618 16.9133 19.1744 16.9653 19.1049C17.0173 19.0353 17.0948 18.9892 17.1807 18.9767C17.2667 18.9641 17.3541 18.9861 17.4238 19.0379C17.4935 19.0897 17.5398 19.167 17.5527 19.2529L17.7303 20.4683C17.7429 20.5544 17.7207 20.642 17.6687 20.7118C17.6167 20.7815 17.5391 20.8278 17.453 20.8404C17.4372 20.8427 17.4211 20.8439 17.4051 20.8439ZM17.0965 17.106C17.0178 17.1059 16.9417 17.0775 16.8822 17.026C16.8226 16.9744 16.7836 16.9032 16.7722 16.8253L16.5949 15.6099C16.5823 15.5238 16.6045 15.4362 16.6565 15.3664C16.7085 15.2965 16.7862 15.2503 16.8723 15.2377C16.9585 15.2251 17.0461 15.2473 17.1159 15.2993C17.1857 15.3513 17.232 15.429 17.2446 15.5151L17.4219 16.7305C17.4345 16.8166 17.4123 16.9042 17.3603 16.974C17.3083 17.0438 17.2307 17.0901 17.1446 17.1027C17.1287 17.1049 17.1126 17.106 17.0965 17.106ZM15.1102 32.0945C15.0314 32.0944 14.9554 32.0659 14.8959 32.0144C14.8363 31.9629 14.7973 31.8917 14.7859 31.8138L14.6085 30.5984C14.596 30.5122 14.6181 30.4246 14.6701 30.3548C14.7222 30.285 14.7998 30.2387 14.886 30.2261C14.9721 30.2135 15.0597 30.2357 15.1295 30.2877C15.1994 30.3398 15.2456 30.4174 15.2582 30.5035L15.4356 31.7189C15.4481 31.8051 15.426 31.8926 15.3739 31.9624C15.3219 32.0322 15.2443 32.0784 15.1582 32.091C15.1423 32.0934 15.1263 32.0946 15.1102 32.0945ZM14.8016 28.0285C14.7229 28.0284 14.6468 27.9999 14.5873 27.9484C14.5278 27.8969 14.4887 27.8257 14.4773 27.7478L14.2999 26.5324C14.2874 26.4462 14.3095 26.3586 14.3615 26.2888C14.4136 26.219 14.4912 26.1727 14.5774 26.1601C14.6635 26.1475 14.7511 26.1697 14.8209 26.2217C14.8908 26.2738 14.937 26.3514 14.9496 26.4375L15.127 27.653C15.1332 27.6956 15.131 27.739 15.1204 27.7808C15.1098 27.8226 15.0911 27.8619 15.0654 27.8964C15.0396 27.931 15.0073 27.9601 14.9703 27.9822C14.9333 28.0042 14.8923 28.0188 14.8496 28.025C14.8337 28.0274 14.8177 28.0286 14.8016 28.0285ZM12.3539 30.4891C12.2752 30.489 12.1992 30.4605 12.1396 30.409C12.0801 30.3575 12.0411 30.2863 12.0297 30.2084L11.8523 28.993C11.8397 28.9068 11.8619 28.8192 11.9139 28.7494C11.966 28.6796 12.0436 28.6333 12.1297 28.6207C12.2159 28.6082 12.3035 28.6303 12.3733 28.6823C12.4431 28.7344 12.4894 28.812 12.502 28.8982L12.6793 30.1136C12.6919 30.1997 12.6697 30.2872 12.6177 30.357C12.5657 30.4268 12.4881 30.473 12.402 30.4856C12.3861 30.488 12.37 30.4892 12.3539 30.4891ZM14.493 23.9625C14.4143 23.9624 14.3382 23.9339 14.2787 23.8824C14.2192 23.8309 14.1801 23.7597 14.1687 23.6818L13.9915 22.4664C13.9789 22.3802 14.0011 22.2926 14.0531 22.2228C14.1051 22.1531 14.1827 22.1068 14.2689 22.0942C14.355 22.0816 14.4426 22.1038 14.5124 22.1558C14.5822 22.2078 14.6285 22.2854 14.641 22.3716L14.8184 23.587C14.8309 23.6731 14.8088 23.7606 14.7568 23.8304C14.7048 23.9001 14.6272 23.9464 14.5411 23.959C14.5252 23.9614 14.5091 23.9626 14.493 23.9625ZM14.1844 19.8967C14.1057 19.8966 14.0296 19.8682 13.9701 19.8166C13.9105 19.7651 13.8715 19.6939 13.8601 19.616L13.6828 18.4005C13.6766 18.3579 13.6788 18.3144 13.6894 18.2726C13.6999 18.2308 13.7186 18.1915 13.7444 18.157C13.7702 18.1224 13.8025 18.0932 13.8395 18.0712C13.8765 18.0491 13.9175 18.0345 13.9602 18.0283C14.0029 18.022 14.0463 18.0243 14.0881 18.0349C14.1299 18.0454 14.1692 18.0641 14.2038 18.0899C14.2384 18.1156 14.2675 18.148 14.2896 18.185C14.3117 18.222 14.3262 18.263 14.3325 18.3057L14.5098 19.5211C14.5224 19.6072 14.5002 19.6948 14.4482 19.7646C14.3962 19.8344 14.3186 19.8807 14.2325 19.8933C14.2166 19.8955 14.2005 19.8967 14.1844 19.8967ZM8.7867 25.5121C8.70798 25.512 8.63192 25.4835 8.5724 25.432C8.51287 25.3805 8.47384 25.3093 8.46242 25.2314L8.28523 24.016C8.27265 23.9299 8.2948 23.8423 8.34681 23.7725C8.39882 23.7027 8.47643 23.6564 8.56256 23.6438C8.64869 23.6312 8.7363 23.6534 8.8061 23.7054C8.87589 23.7574 8.92217 23.835 8.93475 23.9212L9.11211 25.1366C9.12466 25.2227 9.10249 25.3102 9.05049 25.38C8.99848 25.4498 8.92088 25.496 8.83477 25.5086C8.81887 25.511 8.80279 25.5122 8.7867 25.5121ZM11.581 27.0812C11.5023 27.0811 11.4263 27.0526 11.3667 27.0011C11.3072 26.9496 11.2682 26.8784 11.2568 26.8005L11.0794 25.5851C11.0668 25.4989 11.089 25.4113 11.141 25.3415C11.193 25.2717 11.2707 25.2254 11.3568 25.2128C11.443 25.2002 11.5306 25.2224 11.6004 25.2744C11.6702 25.3264 11.7165 25.4041 11.7291 25.4902L11.9065 26.7056C11.919 26.7917 11.8968 26.8793 11.8448 26.9491C11.7928 27.0188 11.7152 27.0651 11.6291 27.0777C11.6132 27.0801 11.5971 27.0813 11.581 27.0812ZM11.2725 23.0153C11.1938 23.0152 11.1177 22.9867 11.0582 22.9352C10.9986 22.8837 10.9596 22.8125 10.9482 22.7346L10.7708 21.5192C10.7583 21.433 10.7804 21.3454 10.8324 21.2756C10.8845 21.2058 10.9621 21.1595 11.0483 21.1469C11.1344 21.1343 11.222 21.1565 11.2918 21.2085C11.3617 21.2605 11.408 21.3382 11.4205 21.4243L11.5977 22.6397C11.6103 22.7258 11.5881 22.8134 11.5361 22.8832C11.4841 22.9529 11.4065 22.9992 11.3204 23.0118C11.3045 23.0142 11.2885 23.0154 11.2725 23.0153ZM10.9639 18.9495C10.8852 18.9494 10.8091 18.921 10.7496 18.8694C10.69 18.8179 10.651 18.7467 10.6396 18.6688L10.4622 17.4534C10.4497 17.3672 10.4718 17.2796 10.5238 17.2098C10.5759 17.1399 10.6535 17.0937 10.7397 17.0811C10.8258 17.0685 10.9134 17.0907 10.9832 17.1427C11.0531 17.1947 11.0993 17.2723 11.1119 17.3585L11.2893 18.5739C11.3018 18.66 11.2797 18.7476 11.2276 18.8174C11.1756 18.8872 11.0981 18.9335 11.0119 18.9461C10.996 18.9483 10.98 18.9495 10.9639 18.9495ZM10.6553 14.8835C10.5766 14.8834 10.5005 14.855 10.441 14.8034C10.3814 14.7519 10.3424 14.6807 10.331 14.6028L10.1538 13.3874C10.1413 13.3012 10.1634 13.2136 10.2154 13.1438C10.2674 13.074 10.345 13.0277 10.4312 13.0152C10.5173 13.0026 10.6049 13.0247 10.6747 13.0767C10.7445 13.1288 10.7908 13.2064 10.8034 13.2925L10.9807 14.5079C10.9932 14.594 10.9711 14.6816 10.9191 14.7514C10.8671 14.8212 10.7895 14.8675 10.7034 14.8801C10.6875 14.8823 10.6714 14.8835 10.6553 14.8835ZM15.8435 35.062C15.7647 35.0619 15.6887 35.0335 15.6292 34.9819C15.5696 34.9304 15.5306 34.8592 15.5192 34.7813L15.3418 33.5656C15.3292 33.4794 15.3514 33.3918 15.4034 33.322C15.4555 33.2522 15.5331 33.2059 15.6192 33.1933C15.7054 33.1807 15.793 33.2029 15.8628 33.2549C15.9326 33.307 15.9789 33.3846 15.9915 33.4707L16.1689 34.6865C16.1751 34.7291 16.1729 34.7726 16.1623 34.8143C16.1517 34.8561 16.133 34.8954 16.1073 34.9299C16.0815 34.9645 16.0492 34.9936 16.0122 35.0157C15.9752 35.0377 15.9342 35.0523 15.8915 35.0585C15.8756 35.0609 15.8596 35.0621 15.8435 35.062ZM8.05193 22.0681C7.97321 22.068 7.89715 22.0395 7.83763 21.988C7.77811 21.9365 7.73909 21.8653 7.72768 21.7874L7.5503 20.5721C7.54407 20.5295 7.5463 20.486 7.55687 20.4443C7.56743 20.4025 7.58613 20.3632 7.61188 20.3286C7.63763 20.2941 7.66994 20.2649 7.70696 20.2428C7.74398 20.2208 7.78498 20.2062 7.82763 20.2C7.87028 20.1937 7.91373 20.196 7.95552 20.2065C7.9973 20.2171 8.0366 20.2358 8.07116 20.2615C8.10572 20.2873 8.13487 20.3196 8.15695 20.3566C8.17902 20.3936 8.19359 20.4346 8.19982 20.4773L8.37717 21.6925C8.38973 21.7786 8.36756 21.8662 8.31555 21.936C8.26354 22.0057 8.18595 22.052 8.09984 22.0646C8.08399 22.067 8.06797 22.0682 8.05193 22.0681ZM7.74336 18.0022C7.66463 18.0021 7.58855 17.9737 7.52902 17.9222C7.46948 17.8707 7.43046 17.7995 7.41908 17.7216L7.24173 16.5062C7.22915 16.42 7.25131 16.3324 7.30333 16.2626C7.35536 16.1927 7.43299 16.1465 7.51914 16.1339C7.60529 16.1213 7.69292 16.1435 7.76273 16.1955C7.83255 16.2475 7.87884 16.3251 7.89141 16.4113L8.0686 17.6267C8.08113 17.7128 8.05896 17.8004 8.00696 17.8702C7.95496 17.94 7.87738 17.9863 7.79127 17.9989C7.7754 18.0011 7.75939 18.0022 7.74336 18.0022ZM23.3657 37.1077C23.3496 37.1078 23.3336 37.1066 23.3178 37.1042C23.2751 37.098 23.2341 37.0834 23.1971 37.0613C23.1601 37.0393 23.1278 37.0101 23.1021 36.9756C23.0763 36.9411 23.0576 36.9018 23.047 36.86C23.0364 36.8182 23.0342 36.7748 23.0404 36.7321L23.2178 35.5167C23.2304 35.4306 23.2767 35.3529 23.3465 35.3009C23.4163 35.2489 23.5039 35.2267 23.5901 35.2393C23.6762 35.2519 23.7538 35.2982 23.8059 35.368C23.8579 35.4378 23.8801 35.5254 23.8675 35.6116L23.6901 36.827C23.6787 36.9049 23.6396 36.9761 23.5801 37.0276C23.5205 37.0792 23.4444 37.1076 23.3657 37.1077ZM23.6743 33.0417C23.6582 33.0418 23.6422 33.0406 23.6264 33.0382C23.5402 33.0256 23.4627 32.9794 23.4106 32.9096C23.3586 32.8398 23.3365 32.7523 23.349 32.6661L23.5264 31.4507C23.539 31.3646 23.5852 31.287 23.655 31.2349C23.7249 31.1829 23.8125 31.1607 23.8986 31.1733C23.9848 31.1859 24.0624 31.2322 24.1144 31.302C24.1665 31.3718 24.1886 31.4594 24.1761 31.5456L23.9985 32.761C23.9871 32.8389 23.9481 32.9101 23.8886 32.9616C23.829 33.0131 23.753 33.0415 23.6743 33.0417ZM23.9828 28.9757C23.9668 28.9758 23.9508 28.9746 23.9349 28.9722C23.8488 28.9596 23.7712 28.9134 23.7192 28.8436C23.6672 28.7738 23.645 28.6863 23.6576 28.6002L23.8348 27.3847C23.841 27.3421 23.8556 27.3011 23.8777 27.264C23.8997 27.227 23.9289 27.1947 23.9635 27.1689C23.998 27.1432 24.0373 27.1245 24.0791 27.1139C24.1209 27.1033 24.1644 27.1011 24.207 27.1073C24.2497 27.1135 24.2907 27.1281 24.3277 27.1502C24.3648 27.1723 24.3971 27.2014 24.4228 27.236C24.4486 27.2706 24.4673 27.3099 24.4779 27.3516C24.4885 27.3934 24.4907 27.4369 24.4845 27.4796L24.3071 28.695C24.2957 28.7729 24.2567 28.8441 24.1971 28.8956C24.1376 28.9471 24.0616 28.9756 23.9828 28.9757ZM24.2914 24.9097C24.2754 24.9098 24.2593 24.9086 24.2435 24.9062C24.1574 24.8936 24.0798 24.8474 24.0278 24.7776C23.9758 24.7078 23.9536 24.6203 23.9662 24.5342L24.1435 23.3187C24.1561 23.2326 24.2024 23.155 24.2722 23.103C24.342 23.051 24.4296 23.0288 24.5157 23.0414C24.6018 23.054 24.6794 23.1003 24.7314 23.1701C24.7835 23.2399 24.8056 23.3274 24.793 23.4136L24.6158 24.629C24.6044 24.7069 24.5654 24.7781 24.5058 24.8297C24.4463 24.8812 24.3702 24.9096 24.2914 24.9097ZM24.5998 20.8439C24.5838 20.8439 24.5678 20.8427 24.5519 20.8404C24.4658 20.8278 24.3882 20.7815 24.3362 20.7118C24.2842 20.642 24.262 20.5544 24.2746 20.4683L24.4523 19.2529C24.4651 19.167 24.5114 19.0897 24.5812 19.0379C24.6509 18.9861 24.7383 18.9641 24.8242 18.9767C24.9102 18.9892 24.9876 19.0353 25.0396 19.1049C25.0916 19.1744 25.1139 19.2618 25.1016 19.3477L24.924 20.5632C24.9126 20.6411 24.8736 20.7123 24.8141 20.7638C24.7546 20.8154 24.6786 20.8438 24.5998 20.8439ZM24.9084 17.106C24.8924 17.106 24.8764 17.1049 24.8605 17.1027C24.7744 17.0901 24.6968 17.0438 24.6448 16.974C24.5928 16.9043 24.5706 16.8167 24.5832 16.7306L24.7605 15.5151C24.7667 15.4725 24.7813 15.4315 24.8034 15.3945C24.8255 15.3575 24.8546 15.3252 24.8892 15.2994C24.9237 15.2736 24.963 15.2549 25.0048 15.2444C25.0466 15.2338 25.09 15.2316 25.1327 15.2378C25.1753 15.244 25.2163 15.2586 25.2534 15.2807C25.2904 15.3027 25.3227 15.3319 25.3484 15.3664C25.3742 15.401 25.3929 15.4403 25.4035 15.4821C25.414 15.5239 25.4163 15.5673 25.41 15.61L25.2329 16.8254C25.2215 16.9033 25.1824 16.9745 25.1228 17.0261C25.0633 17.0776 24.9872 17.1059 24.9084 17.106ZM26.8948 32.0945C26.8787 32.0946 26.8627 32.0934 26.8469 32.091C26.7608 32.0784 26.6832 32.0322 26.6312 31.9624C26.5791 31.8926 26.557 31.8051 26.5695 31.7189L26.7467 30.5035C26.7525 30.4607 26.7667 30.4194 26.7887 30.3821C26.8106 30.3449 26.8397 30.3124 26.8744 30.2865C26.9091 30.2607 26.9486 30.2421 26.9906 30.2317C27.0326 30.2214 27.0762 30.2196 27.1189 30.2263C27.205 30.2389 27.2826 30.2852 27.3346 30.3549C27.3866 30.4247 27.4088 30.5123 27.3962 30.5984L27.2191 31.8138C27.2076 31.8917 27.1686 31.9629 27.1091 32.0144C27.0496 32.0659 26.9735 32.0944 26.8948 32.0945ZM27.2033 28.0285C27.1873 28.0286 27.1713 28.0274 27.1555 28.025C27.1128 28.0188 27.0718 28.0042 27.0348 27.9822C26.9978 27.9601 26.9655 27.931 26.9397 27.8964C26.914 27.8619 26.8953 27.8226 26.8847 27.7808C26.8741 27.739 26.8719 27.6956 26.8781 27.653L27.0555 26.4375C27.0681 26.3514 27.1144 26.2738 27.1842 26.2217C27.254 26.1697 27.3416 26.1475 27.4277 26.1601C27.5139 26.1727 27.5915 26.219 27.6436 26.2888C27.6956 26.3586 27.7178 26.4462 27.7052 26.5324L27.5278 27.7478C27.5164 27.8257 27.4773 27.8969 27.4178 27.9485C27.3582 28 27.2821 28.0284 27.2033 28.0285ZM29.651 30.4891C29.635 30.4892 29.6189 30.488 29.6031 30.4856C29.517 30.473 29.4394 30.4268 29.3874 30.357C29.3354 30.2872 29.3132 30.1997 29.3258 30.1136L29.5029 28.8982C29.5092 28.8555 29.5237 28.8145 29.5458 28.7775C29.5679 28.7404 29.597 28.7081 29.6316 28.6823C29.6662 28.6566 29.7055 28.6379 29.7473 28.6273C29.7891 28.6167 29.8325 28.6145 29.8752 28.6207C29.9179 28.627 29.9589 28.6415 29.9959 28.6636C30.0329 28.6857 30.0652 28.7148 30.091 28.7494C30.1168 28.784 30.1355 28.8233 30.146 28.8651C30.1566 28.9069 30.1589 28.9503 30.1526 28.993L29.9753 30.2084C29.9639 30.2863 29.9248 30.3575 29.8653 30.409C29.8058 30.4605 29.7297 30.489 29.651 30.4891ZM27.5119 23.9625C27.4959 23.9626 27.4799 23.9614 27.464 23.959C27.3779 23.9464 27.3004 23.9001 27.2483 23.8304C27.1963 23.7606 27.1742 23.6731 27.1867 23.587L27.3639 22.3716C27.3697 22.3287 27.3839 22.2874 27.4059 22.2502C27.4278 22.2129 27.457 22.1804 27.4916 22.1546C27.5263 22.1288 27.5658 22.1102 27.6078 22.0998C27.6498 22.0895 27.6934 22.0876 27.7361 22.0944C27.8222 22.1069 27.8998 22.1532 27.9518 22.2229C28.0038 22.2927 28.026 22.3803 28.0134 22.4664L27.8362 23.6818C27.8248 23.7597 27.7858 23.8309 27.7263 23.8824C27.6667 23.9339 27.5907 23.9624 27.5119 23.9625ZM27.8205 19.8967C27.8045 19.8967 27.7885 19.8956 27.7726 19.8934C27.6865 19.8808 27.6089 19.8345 27.5569 19.7647C27.5049 19.6949 27.4827 19.6073 27.4953 19.5212L27.6726 18.3058C27.6852 18.2197 27.7315 18.142 27.8013 18.09C27.8711 18.038 27.9587 18.0159 28.0448 18.0285C28.131 18.041 28.2086 18.0873 28.2606 18.1571C28.3126 18.2269 28.3347 18.3145 28.3222 18.4006L28.145 19.6161C28.1336 19.694 28.0945 19.7652 28.0349 19.8167C27.9754 19.8682 27.8993 19.8966 27.8205 19.8967ZM33.2182 25.5121C33.2022 25.5122 33.1862 25.511 33.1703 25.5086C33.0842 25.496 33.0066 25.4498 32.9546 25.38C32.9026 25.3102 32.8804 25.2227 32.893 25.1366L33.0703 23.9212C33.0829 23.835 33.1292 23.7574 33.199 23.7053C33.2688 23.6533 33.3565 23.6312 33.4426 23.6437C33.5288 23.6563 33.6064 23.7026 33.6584 23.7724C33.7105 23.8422 33.7326 23.9299 33.72 24.016L33.5427 25.2314C33.5313 25.3093 33.4922 25.3806 33.4326 25.4321C33.3731 25.4836 33.297 25.512 33.2182 25.5121ZM30.4239 27.0812C30.4079 27.0813 30.3918 27.0801 30.376 27.0777C30.2899 27.0651 30.2123 27.0188 30.1603 26.9491C30.1083 26.8793 30.0861 26.7917 30.0987 26.7056L30.276 25.4902C30.2886 25.4041 30.3349 25.3265 30.4047 25.2745C30.4745 25.2225 30.5621 25.2003 30.6482 25.2129C30.7343 25.2255 30.8119 25.2717 30.8639 25.3415C30.916 25.4113 30.9381 25.4989 30.9255 25.5851L30.7483 26.8005C30.7369 26.8784 30.6979 26.9496 30.6383 27.0012C30.5787 27.0527 30.5026 27.0811 30.4239 27.0812ZM30.7325 23.0153C30.7164 23.0154 30.7004 23.0142 30.6846 23.0118C30.5984 22.9992 30.5208 22.9529 30.4688 22.8832C30.4168 22.8134 30.3947 22.7258 30.4072 22.6397L30.5846 21.4243C30.5908 21.3817 30.6054 21.3406 30.6275 21.3036C30.6495 21.2666 30.6787 21.2343 30.7133 21.2085C30.7478 21.1828 30.7871 21.1641 30.8289 21.1535C30.8707 21.1429 30.9142 21.1407 30.9568 21.1469C30.9995 21.1531 31.0405 21.1677 31.0775 21.1898C31.1146 21.2119 31.1469 21.241 31.1727 21.2756C31.1984 21.3102 31.2171 21.3495 31.2277 21.3913C31.2383 21.4331 31.2405 21.4765 31.2343 21.5192L31.0569 22.7346C31.0455 22.8125 31.0064 22.8837 30.9469 22.9353C30.8873 22.9868 30.8112 23.0152 30.7325 23.0153ZM31.0411 18.9495C31.025 18.9495 31.009 18.9484 30.9932 18.9462C30.907 18.9336 30.8295 18.8873 30.7775 18.8175C30.7254 18.7477 30.7033 18.6601 30.7158 18.574L30.8932 17.3586C30.9058 17.2724 30.952 17.1948 31.0219 17.1428C31.0917 17.0908 31.1793 17.0686 31.2654 17.0812C31.3516 17.0938 31.4292 17.14 31.4813 17.2099C31.5333 17.2797 31.5554 17.3673 31.5429 17.4534L31.3655 18.6689C31.3541 18.7468 31.315 18.818 31.2555 18.8695C31.1959 18.921 31.1198 18.9494 31.0411 18.9495ZM31.3496 14.8835C31.3336 14.8835 31.3176 14.8824 31.3017 14.8802C31.2156 14.8676 31.138 14.8213 31.086 14.7515C31.034 14.6817 31.0119 14.5941 31.0244 14.508L31.2016 13.2926C31.2142 13.2064 31.2604 13.1288 31.3303 13.0768C31.4001 13.0248 31.4877 13.0026 31.5739 13.0152C31.66 13.0278 31.7376 13.074 31.7897 13.1439C31.8417 13.2137 31.8638 13.3013 31.8513 13.3875L31.6739 14.6029C31.6625 14.6808 31.6235 14.752 31.564 14.8035C31.5044 14.855 31.4284 14.8834 31.3496 14.8835ZM26.1615 35.062C26.1454 35.0621 26.1294 35.0609 26.1136 35.0585C26.0709 35.0523 26.0299 35.0377 25.9929 35.0157C25.9559 34.9936 25.9236 34.9645 25.8978 34.9299C25.8721 34.8954 25.8534 34.8561 25.8428 34.8143C25.8322 34.7726 25.83 34.7291 25.8362 34.6865L26.0136 33.4707C26.0262 33.3846 26.0725 33.307 26.1423 33.255C26.2121 33.203 26.2997 33.1808 26.3858 33.1934C26.4719 33.206 26.5495 33.2523 26.6015 33.3221C26.6535 33.3919 26.6757 33.4795 26.6631 33.5656L26.4857 34.7813C26.4743 34.8592 26.4353 34.9304 26.3758 34.9819C26.3163 35.0335 26.2402 35.0619 26.1615 35.062ZM33.953 22.0681C33.937 22.0682 33.921 22.067 33.9051 22.0646C33.819 22.052 33.7414 22.0057 33.6894 21.936C33.6374 21.8662 33.6152 21.7786 33.6278 21.6925L33.8051 20.4773C33.8113 20.4346 33.8259 20.3936 33.848 20.3566C33.8701 20.3196 33.8992 20.2872 33.9338 20.2615C33.9684 20.2357 34.0077 20.217 34.0495 20.2064C34.0913 20.1959 34.1347 20.1936 34.1774 20.1999C34.2201 20.2061 34.2611 20.2207 34.2981 20.2427C34.3351 20.2648 34.3674 20.294 34.3932 20.3286C34.419 20.3631 34.4377 20.4024 34.4482 20.4442C34.4588 20.486 34.461 20.5295 34.4548 20.5721L34.2774 21.7874C34.266 21.8653 34.227 21.9365 34.1674 21.9881C34.1079 22.0396 34.0318 22.068 33.953 22.0681ZM34.2616 18.0022C34.2456 18.0022 34.2295 18.0011 34.2137 17.999C34.1276 17.9863 34.05 17.94 33.998 17.8703C33.946 17.8005 33.9238 17.7129 33.9363 17.6268L34.1135 16.4114C34.1261 16.3252 34.1724 16.2476 34.2422 16.1955C34.312 16.1435 34.3996 16.1214 34.4858 16.1339C34.572 16.1465 34.6496 16.1928 34.7016 16.2626C34.7536 16.3324 34.7758 16.4201 34.7632 16.5062L34.586 17.7216C34.5746 17.7996 34.5356 17.8708 34.476 17.9223C34.4164 17.9738 34.3403 18.0022 34.2616 18.0022ZM21.0025 33.0045C20.9154 33.0045 20.832 32.9699 20.7705 32.9084C20.7089 32.8469 20.6743 32.7634 20.6743 32.6764V31.5045C20.6743 31.4175 20.7089 31.3341 20.7705 31.2725C20.832 31.211 20.9154 31.1764 21.0025 31.1764C21.0895 31.1764 21.173 31.211 21.2345 31.2725C21.296 31.3341 21.3306 31.4175 21.3306 31.5045V32.6764C21.3306 32.7634 21.296 32.8469 21.2345 32.9084C21.173 32.9699 21.0895 33.0045 21.0025 33.0045ZM21.0025 28.9296C20.9154 28.9296 20.832 28.895 20.7705 28.8335C20.7089 28.7719 20.6743 28.6885 20.6743 28.6014V27.43C20.6743 27.343 20.7089 27.2595 20.7705 27.198C20.832 27.1365 20.9154 27.1019 21.0025 27.1019C21.0895 27.1019 21.173 27.1365 21.2345 27.198C21.296 27.2595 21.3306 27.343 21.3306 27.43V28.6014C21.3306 28.6885 21.296 28.7719 21.2345 28.8335C21.173 28.895 21.0895 28.9296 21.0025 28.9296ZM21.0025 24.8549C20.9154 24.8549 20.832 24.8203 20.7705 24.7588C20.7089 24.6973 20.6743 24.6138 20.6743 24.5268V23.3554C20.6743 23.2683 20.7089 23.1849 20.7705 23.1233C20.832 23.0618 20.9154 23.0272 21.0025 23.0272C21.0895 23.0272 21.173 23.0618 21.2345 23.1233C21.296 23.1849 21.3306 23.2683 21.3306 23.3554V24.5268C21.3306 24.6138 21.296 24.6973 21.2345 24.7588C21.173 24.8203 21.0895 24.8549 21.0025 24.8549ZM21.0025 20.7802C20.9154 20.7802 20.832 20.7457 20.7705 20.6841C20.7089 20.6226 20.6743 20.5391 20.6743 20.4521V19.2804C20.6743 19.1934 20.7089 19.11 20.7705 19.0484C20.832 18.9869 20.9154 18.9523 21.0025 18.9523C21.0895 18.9523 21.173 18.9869 21.2345 19.0484C21.296 19.11 21.3306 19.1934 21.3306 19.2804V20.4521C21.3306 20.5391 21.296 20.6226 21.2345 20.6841C21.173 20.7457 21.0895 20.7802 21.0025 20.7802Z" fill="#FF8C00"/>
<path d="M21.0022 11.1643C20.4591 11.1762 19.9165 11.1236 19.3858 11.0078C19.3024 10.9849 19.2314 10.9301 19.1883 10.8551C19.1451 10.7802 19.1333 10.6912 19.1554 10.6076C19.1775 10.524 19.2317 10.4525 19.3062 10.4086C19.3807 10.3648 19.4695 10.3521 19.5534 10.3734C20.0297 10.4728 20.5157 10.518 21.0022 10.5081C21.4812 10.5192 21.9598 10.4742 22.4283 10.374C22.5115 10.3531 22.5996 10.3657 22.6737 10.409C22.7477 10.4524 22.8019 10.523 22.8245 10.6057C22.8472 10.6885 22.8365 10.7768 22.7948 10.8518C22.7531 10.9268 22.6836 10.9824 22.6014 11.0068C22.0768 11.1245 21.5397 11.1774 21.0022 11.1643Z" fill="#2C4C31"/>
</svg>
